<svg xmlns="http://www.w3.org/2000/svg" xmlns:xlink="http://www.w3.org/1999/xlink" width="500" zoomAndPan="magnify" viewBox="0 0 375 374.999991" height="500" preserveAspectRatio="xMidYMid meet" version="1.0"><defs><g/></defs><path fill="#ffffff" d="M 48.019531 25.476562 L 334.191406 25.476562 C 338.988281 25.476562 343.589844 27.378906 346.984375 30.769531 C 350.375 34.160156 352.28125 38.757812 352.28125 43.554688 L 352.28125 336.097656 C 352.28125 340.890625 350.375 345.488281 346.984375 348.878906 C 343.589844 352.269531 338.988281 354.175781 334.191406 354.175781 L 48.019531 354.175781 C 43.222656 354.175781 38.621094 352.269531 35.230469 348.878906 C 31.839844 345.488281 29.933594 340.890625 29.933594 336.097656 L 29.933594 43.554688 C 29.933594 33.570312 38.03125 25.476562 48.019531 25.476562 " fill-opacity="1" fill-rule="nonzero"/><g fill="#000000" fill-opacity="1"><g transform="translate(72.117773, 252.598928)"><g><path d="M 148.03125 -117.5625 L 92.125 -61.40625 L 153.53125 0 L 101.28125 0 L 54.3125 -46.984375 L 54.3125 0 L 13.75 0 L 13.75 -197.078125 L 54.3125 -197.078125 L 54.3125 -76.53125 L 95.328125 -117.5625 Z M 148.03125 -117.5625 "/></g></g></g><g fill="#000000" fill-opacity="1"><g transform="translate(208.690739, 252.598928)"><g><path d="M 64.84375 -121 C 71.570312 -121 78.21875 -120.234375 84.78125 -118.703125 C 91.351562 -117.171875 96.242188 -115.644531 99.453125 -114.125 L 104.265625 -111.828125 L 90.96875 -85.25 C 81.800781 -90.132812 73.09375 -92.578125 64.84375 -92.578125 C 60.257812 -92.578125 57.015625 -92.078125 55.109375 -91.078125 C 53.203125 -90.085938 52.25 -88.21875 52.25 -85.46875 C 52.25 -84.863281 52.320312 -84.253906 52.46875 -83.640625 C 52.625 -83.023438 52.929688 -82.453125 53.390625 -81.921875 C 53.847656 -81.390625 54.269531 -80.929688 54.65625 -80.546875 C 55.039062 -80.160156 55.6875 -79.738281 56.59375 -79.28125 C 57.507812 -78.820312 58.234375 -78.476562 58.765625 -78.25 C 59.304688 -78.019531 60.1875 -77.675781 61.40625 -77.21875 C 62.632812 -76.757812 63.550781 -76.414062 64.15625 -76.1875 C 64.769531 -75.957031 65.800781 -75.613281 67.25 -75.15625 C 68.707031 -74.695312 69.816406 -74.394531 70.578125 -74.25 C 75.316406 -72.875 79.441406 -71.34375 82.953125 -69.65625 C 86.460938 -67.976562 90.164062 -65.6875 94.0625 -62.78125 C 97.957031 -59.882812 100.972656 -56.21875 103.109375 -51.78125 C 105.253906 -47.351562 106.328125 -42.316406 106.328125 -36.671875 C 106.328125 -9.929688 87.765625 3.4375 50.640625 3.4375 C 42.242188 3.4375 34.265625 2.140625 26.703125 -0.453125 C 19.140625 -3.054688 13.675781 -5.65625 10.3125 -8.25 L 5.265625 -12.375 L 21.765625 -40.109375 C 22.992188 -39.035156 24.597656 -37.769531 26.578125 -36.3125 C 28.566406 -34.863281 32.15625 -32.878906 37.34375 -30.359375 C 42.539062 -27.835938 47.050781 -26.578125 50.875 -26.578125 C 59.269531 -26.578125 63.46875 -29.40625 63.46875 -35.0625 C 63.46875 -37.65625 62.398438 -39.675781 60.265625 -41.125 C 58.128906 -42.582031 54.5 -44.226562 49.375 -46.0625 C 44.257812 -47.894531 40.253906 -49.578125 37.359375 -51.109375 C 30.023438 -54.921875 24.21875 -59.234375 19.9375 -64.046875 C 15.65625 -68.859375 13.515625 -75.238281 13.515625 -83.1875 C 13.515625 -95.101562 18.132812 -104.382812 27.375 -111.03125 C 36.625 -117.675781 49.113281 -121 64.84375 -121 Z M 64.84375 -121 "/></g></g></g></svg>